<?xml version="1.0" standalone="no"?>
<!DOCTYPE svg PUBLIC "-//W3C//DTD SVG 20010904//EN"
 "http://www.w3.org/TR/2001/REC-SVG-20010904/DTD/svg10.dtd">
<svg version="1.0" xmlns="http://www.w3.org/2000/svg"
 width="276.000000pt" height="276.000000pt" viewBox="0 0 276.000000 276.000000"
 preserveAspectRatio="xMidYMid meet">
<metadata>
Created by potrace 1.11, written by Peter Selinger 2001-2013
</metadata>
<g transform="translate(0.000000,276.000000) scale(0.100000,-0.100000)"
fill="#000000" stroke="none">
<path d="M1249 2756 c-2 -2 -24 -6 -49 -10 -114 -15 -134 -19 -252 -57 -54
-17 -98 -35 -98 -40 0 -6 -4 -8 -8 -5 -14 9 -234 -108 -252 -134 -3 -4 -10 -9
-16 -11 -18 -6 -91 -69 -163 -139 -78 -77 -153 -170 -207 -260 -21 -36 -43
-68 -49 -72 -5 -4 -7 -8 -3 -8 4 0 -6 -26 -21 -57 -34 -68 -89 -230 -97 -282
-3 -20 -8 -45 -11 -56 -18 -60 -25 -319 -12 -420 10 -76 50 -242 70 -290 7
-16 13 -35 15 -42 5 -26 98 -201 136 -258 105 -154 231 -281 378 -379 72 -48
200 -119 200 -111 0 3 10 -1 23 -9 12 -8 45 -22 72 -31 28 -9 57 -19 65 -22
18 -7 19 -7 100 -27 105 -25 167 -31 315 -30 188 0 283 15 445 70 71 24 239
101 250 114 3 4 24 17 48 30 23 13 42 27 42 32 0 4 5 8 11 8 28 0 213 176 290
276 54 70 120 176 138 222 8 17 18 32 24 32 6 0 7 3 4 7 -4 3 0 17 8 30 9 13
13 28 10 33 -3 5 -1 11 5 15 5 3 21 44 35 90 31 100 32 107 53 230 9 53 9 308
0 365 -14 90 -29 156 -50 225 -12 39 -23 72 -23 75 -8 35 -117 253 -135 270
-3 3 -23 29 -44 59 -50 71 -49 69 -136 157 -90 90 -103 102 -155 140 -22 16
-42 31 -45 34 -3 3 -15 11 -27 18 -13 6 -33 18 -45 25 -13 6 -25 15 -28 18
-19 20 -274 125 -322 131 -13 2 -27 6 -33 9 -5 4 -32 10 -58 13 -27 4 -59 10
-70 13 -25 6 -323 14 -328 9z"/>
</g>
</svg>
